<svg width="492.241" height="492.241" xmlns="http://www.w3.org/2000/svg" xml:space="preserve" version="1.1">

 <g>
  <title>Layer 1</title>
  <path fill="#ffaa00" id="svg_2" d="m486.557,96.19l-90.498,-90.494c-3.643,-3.646 -8.596,-5.694 -13.74,-5.694c-5.146,0 -10.094,2.047 -13.742,5.694l-0.98,0.99l25.885,25.894c3.225,3.227 3.225,8.451 0,11.678c-1.613,1.612 -3.729,2.418 -5.838,2.418c-2.113,0 -4.229,-0.806 -5.842,-2.418l-25.883,-25.894l-22.873,22.854l25.902,25.885c3.227,3.227 3.227,8.453 0,11.678c-1.611,1.612 -3.727,2.418 -5.836,2.418c-2.113,0 -4.228,-0.806 -5.842,-2.418l-25.898,-25.885l-22.838,22.854l48.898,48.909c3.229,3.225 3.229,8.451 0,11.675c-1.613,1.612 -3.709,2.419 -5.836,2.419c-2.096,0 -4.225,-0.807 -5.838,-2.419l-48.904,-48.908l-22.854,22.845l117.434,118.508l105.123,-105.107c7.578,-7.588 7.578,-19.894 0,-27.482z"/>
  <path fill="#ffaa00" id="svg_3" d="m91.368,282.897l48.918,48.917c3.225,3.225 3.225,8.451 0,11.676c-1.617,1.612 -3.744,2.418 -5.842,2.418c-2.127,0 -4.223,-0.806 -5.836,-2.418l-48.932,-48.915l-22.84,22.853l25.902,25.901c3.227,3.227 3.227,8.451 0,11.678c-1.611,1.612 -3.727,2.418 -5.84,2.418c-2.109,0 -4.225,-0.806 -5.838,-2.418l-25.902,-25.903l-26.801,26.806l25.899,25.901c3.225,3.227 3.225,8.451 0,11.678c-1.613,1.612 -3.74,2.419 -5.838,2.419c-2.127,0 -4.224,-0.806 -5.841,-2.419l-25.898,-25.904l-0.999,0.984c-3.648,3.646 -5.68,8.589 -5.68,13.741c0,5.155 2.032,10.098 5.681,13.742l90.511,90.495c7.576,7.589 19.881,7.589 27.482,0l104.99,-104.985l-117.99,-117.985l-19.306,19.32z"/>
  <path fill="#ffaa00" id="svg_4" d="m212.858,95.246c-1.773,-1.783 -3.934,-3.128 -6.32,-3.95l-143.541,-49.151c-5.967,-2.018 -12.563,-0.509 -17.031,3.95c-4.451,4.459 -5.984,11.065 -3.934,17.024l49.143,143.54c0.82,2.387 2.174,4.549 3.953,6.33l230.18,230.182c15.707,15.718 36.607,24.378 58.836,24.378c22.223,0 43.141,-8.66 58.881,-24.403c32.469,-32.465 32.469,-85.285 0,-117.743l-230.167,-230.157zm-8.416,38.297l198.022,198.004l-17.516,17.515l-198.02,-198.011l17.514,-17.508zm-110.444,-20.619l18.805,-18.813l62.834,21.522l-60.125,60.126l-21.514,-62.835zm237.422,289.653l-198.007,-198.013l17.514,-17.517l198.007,198.023l-17.514,17.507zm88.252,17.208c-16.791,16.789 -44.951,18.54 -64.238,5.484l69.771,-69.747c13.706,19.579 11.932,46.788 -5.533,64.263z"/>
  <g id="svg_5"/>
  <g id="svg_6"/>
  <g id="svg_7"/>
  <g id="svg_8"/>
  <g id="svg_9"/>
  <g id="svg_10"/>
  <g id="svg_11"/>
  <g id="svg_12"/>
  <g id="svg_13"/>
  <g id="svg_14"/>
  <g id="svg_15"/>
  <g id="svg_16"/>
  <g id="svg_17"/>
  <g id="svg_18"/>
  <g id="svg_19"/>
 </g>
</svg>